<?xml version="1.0" encoding="UTF-8"?>
<svg version="1.1" xmlns="http://www.w3.org/2000/svg" width="512" height="512">
<path d="M0 0 C9.91238288 6.03143298 17.323464 15.22446411 20.36328125 26.4765625 C20.91873836 29.22320213 21.316833 31.92936436 21.6171875 34.71484375 C21.74287109 35.82279297 21.74287109 35.82279297 21.87109375 36.953125 C22.21489557 43.01956357 20.36526768 48.13921266 18.296875 53.796875 C17.40302906 56.58568846 17.40302906 56.58568846 18.19140625 58.80859375 C20.07756864 61.33036702 22.20241601 63.30656097 24.5546875 65.40234375 C25.28776123 66.05807373 25.28776123 66.05807373 26.03564453 66.72705078 C29.28204442 69.60707274 32.61327253 72.36587265 35.9921875 75.08984375 C40.78939685 78.95767921 45.28922957 83.0659387 49.78295898 87.27514648 C53.10838505 90.37235221 56.50420425 93.31091442 60.0546875 96.15234375 C65.07560698 100.17931119 69.74140567 104.50699078 74.42333984 108.91552734 C78.73812744 112.95628518 83.21905634 116.70883882 87.8359375 120.40234375 C91.06133191 123.08413236 94.11997768 125.90986935 97.1796875 128.77734375 C102.4446232 133.7114613 107.88948112 138.31886143 113.6171875 142.71484375 C114.55820312 142.16054687 115.49921875 141.60625 116.46875 141.03515625 C117.72639354 140.30309508 118.98421558 139.5713405 120.2421875 138.83984375 C120.85964844 138.47503906 121.47710937 138.11023438 122.11328125 137.734375 C132.10349235 131.95056857 142.24928625 130.65284169 153.5703125 132.8671875 C164.9725256 136.03934166 174.64636055 142.62033792 180.9921875 152.65234375 C181.89924071 154.32283342 182.77680613 156.00983923 183.6171875 157.71484375 C183.9575 158.37613281 184.2978125 159.03742188 184.6484375 159.71875 C188.47517723 168.77182408 188.09204172 181.5815419 184.9921875 190.77734375 C179.75281759 202.71653511 171.68671862 211.7166482 159.50390625 216.74609375 C147.24459491 220.86017929 136.17082271 220.48005347 124.40625 215.16015625 C114.40235529 209.97606515 106.96407759 202.12103517 102.6171875 191.71484375 C102.2253125 190.80734375 101.8334375 189.89984375 101.4296875 188.96484375 C98.63679218 177.79326248 98.86080187 166.47537654 104.3671875 156.21484375 C104.83640625 155.44140625 105.305625 154.66796875 105.7890625 153.87109375 C106.84938383 151.75775442 106.84938383 151.75775442 106.03515625 149.6953125 C104.30967948 147.28534908 102.40821753 145.48488452 100.1796875 143.52734375 C99.27992188 142.73585937 98.38015625 141.944375 97.453125 141.12890625 C94.76876505 138.84387258 92.04865481 136.61522062 89.3046875 134.40234375 C84.48973006 130.51098887 79.96631579 126.38355231 75.45166016 122.15478516 C72.12616517 119.05748149 68.73026207 116.11884616 65.1796875 113.27734375 C60.15876802 109.25037631 55.49296933 104.92269672 50.81103516 100.51416016 C46.49624756 96.47340232 42.01531866 92.72084868 37.3984375 89.02734375 C34.17304309 86.34555514 31.11439732 83.51981815 28.0546875 80.65234375 C22.7897518 75.7182262 17.34489388 71.11082607 11.6171875 66.71484375 C11.17890625 67.15054688 10.740625 67.58625 10.2890625 68.03515625 C-0.00589658 77.70237392 -11.26173468 81.86167069 -25.17578125 81.75390625 C-26.21720276 81.74967651 -26.21720276 81.74967651 -27.27966309 81.74536133 C-28.98072757 81.73804492 -30.68177456 81.72683697 -32.3828125 81.71484375 C-40.9114848 104.28433692 -49.43730349 126.85490435 -57.9552002 149.4284668 C-59.20017848 152.7277389 -60.44529462 156.02695894 -61.69042969 159.32617188 C-65.64817902 169.81355037 -69.60444083 180.30148506 -73.55656433 190.79098511 C-75.39009308 195.65715495 -77.22435711 200.52304748 -79.0586853 205.38891602 C-79.9321219 207.70648517 -80.8051971 210.02419057 -81.67788696 212.34204102 C-82.89111944 215.56430836 -84.10559116 218.78610619 -85.3203125 222.0078125 C-85.6736113 222.94715134 -86.0269101 223.88649017 -86.39091492 224.85429382 C-86.72726456 225.74566544 -87.0636142 226.63703705 -87.41015625 227.55541992 C-87.73097168 228.40808441 -88.05178711 229.2607489 -88.38232422 230.13925171 C-89.08018239 231.93577244 -89.80827492 233.72071399 -90.55908203 235.49575806 C-90.93532715 236.38701385 -91.31157227 237.27826965 -91.69921875 238.1965332 C-92.21850952 239.39159233 -92.21850952 239.39159233 -92.74829102 240.61079407 C-93.65081154 242.8719656 -93.65081154 242.8719656 -92.3828125 245.71484375 C-91.20517057 246.85883877 -90.02724942 248.0025483 -88.84765625 249.14453125 C-80.7889165 257.78350026 -77.41446754 268.03413247 -77.3828125 279.71484375 C-78.12714165 291.91536935 -83.16363681 303.52002092 -92.3828125 311.71484375 C-103.9839089 320.5673727 -115.05547077 322.94290161 -129.3828125 321.71484375 C-141.16539148 319.50300189 -151.04123887 312.71603841 -157.953125 302.9765625 C-164.7704688 292.19174813 -166.68618716 279.84391072 -164.09765625 267.32421875 C-163.16258117 263.91093921 -161.96479942 260.87881759 -160.3828125 257.71484375 C-161.082854 257.45614502 -161.78289551 257.19744629 -162.50415039 256.9309082 C-165.65892021 255.59820458 -168.49191657 253.99868438 -171.44140625 252.2578125 C-172.01786392 251.91885452 -172.59432159 251.57989655 -173.18824768 251.23066711 C-175.06757005 250.12452635 -176.94393825 249.01347681 -178.8203125 247.90234375 C-180.13718974 247.12599659 -181.45424904 246.34995818 -182.77148438 245.57421875 C-186.04934558 243.64270539 -189.32484695 241.70723594 -192.5993042 239.7699585 C-195.12153559 238.2778188 -197.64479144 236.78741447 -200.16796875 235.296875 C-202.76259023 233.76377671 -205.35690895 232.23017995 -207.95019531 230.69482422 C-213.31963593 227.51745823 -218.69775355 224.35525784 -224.08203125 221.203125 C-225.07470505 220.6218837 -225.07470505 220.6218837 -226.08743286 220.02890015 C-229.36674707 218.10906412 -232.64677031 216.19045253 -235.92773438 214.2734375 C-237.12501419 213.57294092 -238.32228047 212.8724212 -239.51953125 212.171875 C-241.10834106 211.24338745 -241.10834106 211.24338745 -242.72924805 210.29614258 C-244.64559413 209.15416323 -246.52666901 207.95227274 -248.3828125 206.71484375 C-251.68223019 207.05071262 -253.56137829 208.44971479 -256.0703125 210.52734375 C-265.82773974 218.03444183 -277.13587497 220.68737751 -289.3359375 219.3125 C-301.71004275 216.88527166 -311.47234784 210.10767281 -318.87890625 200.0546875 C-325.94135463 189.06661846 -327.32055122 176.10457194 -324.69921875 163.40234375 C-320.56183457 151.31637502 -312.59426209 141.51879297 -301.0703125 135.83984375 C-289.49660034 131.06185379 -277.90365033 130.34828512 -266.1953125 134.90234375 C-254.91680564 140.00244375 -246.046424 148.08896864 -241.3828125 159.71484375 C-236.37679991 173.21814708 -238.86985426 185.56464487 -243.3828125 198.71484375 C-242.72611572 199.09068604 -242.06941895 199.46652832 -241.39282227 199.85375977 C-228.0716326 207.4864726 -214.81860752 215.20919298 -201.67138672 223.13891602 C-191.5788976 229.21881522 -181.41000088 235.16475484 -171.21240234 241.06640625 C-169.16498972 242.25916984 -167.12449251 243.46383042 -165.08837891 244.67578125 C-164.0060498 245.31773437 -162.9237207 245.9596875 -161.80859375 246.62109375 C-160.81899658 247.21212891 -159.82939941 247.80316406 -158.80981445 248.41210938 C-156.54820356 249.87249105 -156.54820356 249.87249105 -154.3828125 249.71484375 C-153.361875 248.66296875 -153.361875 248.66296875 -152.3203125 247.58984375 C-144.02821448 239.10546519 -133.21814209 234.68387927 -121.3828125 234.21484375 C-114.68343223 234.42979713 -108.65596722 236.50895005 -102.3828125 238.71484375 C-95.85612236 222.71198114 -89.76581726 206.5524071 -83.72378159 190.36227798 C-82.40014246 186.81724252 -81.07374113 183.27324126 -79.74731445 179.72924805 C-79.34873686 178.66431232 -79.34873686 178.66431232 -78.9421072 177.57786274 C-78.40589428 176.1452375 -77.8696658 174.71261808 -77.33342171 173.2800045 C-76.53348806 171.14269852 -75.73381745 169.00529427 -74.93418884 166.86787415 C-70.68189255 155.50318889 -66.40820712 144.14667278 -62.11712646 132.79656982 C-61.08394815 130.06341531 -60.05190261 127.32983515 -59.02001953 124.59619141 C-56.00293822 116.60835031 -52.97000494 108.62721372 -49.8984375 100.66015625 C-49.11553754 98.62271084 -48.33305436 96.58510585 -47.5506897 94.54745483 C-46.84771173 92.72343659 -46.13726194 90.90230336 -45.42651367 89.08129883 C-45.01892822 88.02064209 -44.61134277 86.95998535 -44.19140625 85.8671875 C-43.83876709 84.95960693 -43.48612793 84.05202637 -43.12280273 83.11694336 C-42.18654141 80.49663978 -42.18654141 80.49663978 -42.3828125 76.71484375 C-44.09468218 75.22584128 -44.09468218 75.22584128 -46.3828125 74.02734375 C-56.07196626 67.93353635 -61.40338571 59.63402524 -64.9921875 48.890625 C-67.37486326 35.61912103 -65.24402276 22.98697058 -57.6328125 11.83984375 C-43.68486844 -6.11167684 -19.83570061 -10.69827131 0 0 Z M-37.2578125 24.52734375 C-41.17392883 29.45378234 -42.61849193 33.2799822 -42.3203125 39.58984375 C-41.43781629 46.40353546 -38.6426368 50.9521808 -33.2578125 55.15234375 C-27.9559015 58.03381712 -23.3090489 58.33912088 -17.3828125 57.71484375 C-10.53033635 55.64013211 -6.62856343 51.56470249 -3.0703125 45.46484375 C-1.43131125 38.90883876 -1.54119873 32.50658148 -4.90625 26.5390625 C-8.35938799 22.27288408 -13.22722077 19.43337433 -18.3828125 17.71484375 C-26.25916421 17.09709067 -31.88367621 18.69607138 -37.2578125 24.52734375 Z M-298.09375 162.72265625 C-301.5444113 168.12802742 -303.33270499 173.22937087 -302.3828125 179.71484375 C-299.99049315 186.77379503 -296.86229119 191.06277394 -290.3828125 194.71484375 C-284.66450504 196.47961198 -278.72929393 196.62600264 -273.1953125 194.21484375 C-267.91136983 191.26640374 -264.27987955 186.40604489 -262.3828125 180.71484375 C-261.65027524 173.95388513 -262.14437842 168.21303463 -266.3828125 162.71484375 C-271.79680052 157.62258863 -276.54566906 155.23774761 -284.09765625 155.37890625 C-289.49301855 156.17207062 -294.53734619 158.54915954 -298.09375 162.72265625 Z M127.6171875 162.71484375 C123.61573481 168.35087679 122.57716758 173.9113801 123.6171875 180.71484375 C125.49530992 187.33522527 129.7057709 191.37812618 135.6171875 194.71484375 C141.00210769 196.44010944 145.99470239 196.23733896 151.3046875 194.52734375 C157.58354099 191.09174467 161.27541994 186.40382874 163.6171875 179.71484375 C164.62454078 172.77529892 162.70566631 167.40741472 158.6171875 161.71484375 C153.54865107 157.39574072 148.4478793 155.39760424 141.73828125 155.49609375 C136.22785187 156.06438849 131.47051937 158.86151188 127.6171875 162.71484375 Z M-136.17578125 264.65625 C-140.72440827 270.52300646 -142.22472602 275.30600476 -141.3828125 282.71484375 C-139.51065624 288.9403272 -135.71949803 293.1375051 -130.3828125 296.71484375 C-125.14828958 299.39026658 -119.99698027 298.96955988 -114.3828125 297.71484375 C-108.8182392 294.88006113 -105.13998197 290.81080901 -102.0703125 285.40234375 C-100.41127481 278.9170146 -100.8059085 273.37069466 -104.11328125 267.50390625 C-107.15872868 263.21216803 -111.23795044 260.00105926 -116.3828125 258.71484375 C-124.14927468 257.839939 -130.69415168 258.7208036 -136.17578125 264.65625 Z " fill="#000000" transform="translate(325.3828125,98.28515625)"/>
<path d="M0 0 C0.80775879 0.00054382 1.61551758 0.00108765 2.44775391 0.00164795 C58.33732383 0.17372175 106.62514306 23.97808359 145.77734375 62.953125 C169.19051374 87.69443267 195.1875 131.07036138 195.1875 166.375 C193.6149835 167.26929374 192.02896259 168.13987427 190.4375 169 C189.55578125 169.48726562 188.6740625 169.97453125 187.765625 170.4765625 C185.1875 171.375 185.1875 171.375 183.17578125 170.80078125 C180.66198325 168.99815596 178.40352532 167.03044407 176.125 164.9375 C174.83916016 163.76380859 174.83916016 163.76380859 173.52734375 162.56640625 C172.75519531 161.84324219 171.98304688 161.12007812 171.1875 160.375 C170.63835937 159.94574219 170.08921875 159.51648438 169.5234375 159.07421875 C167.34702768 156.30597819 166.75204217 152.97518982 165.875 149.625 C158.89209747 124.7188743 146.58356272 102.29648454 129.51611328 82.89160156 C128.28743443 81.48907436 127.07834458 80.06945113 125.87109375 78.6484375 C119.41500883 71.1875594 112.10891416 65.20855693 104.140625 59.42578125 C103.43558838 58.90999512 102.73055176 58.39420898 102.00415039 57.86279297 C100.62619535 56.859466 99.24037345 55.86681856 97.84545898 54.88720703 C92.2637288 50.8339651 87.40807304 46.03671913 85.1875 39.375 C83.88101144 38.65714914 82.5415626 37.99848752 81.1875 37.375 C79.65501287 36.26592732 78.13507618 35.1393985 76.625 34 C68.19052217 28.01102166 58.98640512 25.22593714 48.6875 25.25 C47.5840625 25.24742188 46.480625 25.24484375 45.34375 25.2421875 C42.48761722 25.36237131 39.97768237 25.80810581 37.1875 26.375 C35.23082154 26.46563633 33.27126994 26.50508771 31.3125 26.5 C30.32507813 26.50257812 29.33765625 26.50515625 28.3203125 26.5078125 C25.1875 26.375 25.1875 26.375 21.97338867 25.87939453 C15.14570312 24.96974093 8.25333414 25.1310639 1.375 25.125 C0.58749359 25.12399292 -0.20001282 25.12298584 -1.01138306 25.12194824 C-12.57220841 25.13196897 -23.53226888 25.66306879 -34.8125 28.375 C-36.14149003 28.65830802 -37.47092654 28.93952899 -38.80078125 29.21875 C-69.51288911 35.96653114 -96.86088295 52.44632972 -119.39501953 74.02050781 C-120.60620912 75.17787602 -121.83105337 76.32092609 -123.05859375 77.4609375 C-151.42362187 104.51329832 -164.93908665 143.64695662 -170.8125 181.375 C-173.44280631 180.16186082 -174.93938093 179.24449391 -177 177.125 C-181.61287816 172.61463024 -186.99735118 169.15730477 -192.8125 166.375 C-192.1988096 157.78333434 -190.12948366 149.63797786 -187.8125 141.375 C-187.62091309 140.68792969 -187.42932617 140.00085938 -187.23193359 139.29296875 C-181.66056958 119.87774781 -172.63496492 100.76714107 -160.8125 84.375 C-160.42384766 83.83520508 -160.03519531 83.29541016 -159.63476562 82.73925781 C-154.01525057 75.0067689 -147.88072363 67.81182624 -141.27636719 60.90625 C-140.28506414 59.86931659 -139.29886667 58.82748231 -138.31738281 57.78125 C-110.45219185 28.15334089 -71.71581951 9.09426129 -31.8125 2.375 C-30.80469482 2.19839844 -29.79688965 2.02179687 -28.75854492 1.83984375 C-19.1417555 0.29264787 -9.71436226 -0.02474583 0 0 Z " fill="#000000" transform="translate(252.8125,59.625)"/>
<path d="M0 0 C2.59973915 2.49574958 4.94009252 5.11579701 7.25 7.875 C10.73694729 11.9141103 14.6122748 14.99127415 19 18 C13.38989315 38.61600242 3.1286425 58.19103313 -10 75 C-10.70382812 75.91394531 -11.40765625 76.82789063 -12.1328125 77.76953125 C-21.61228522 89.71506606 -31.91521106 100.69119627 -44 110 C-44.74894531 110.63808594 -45.49789063 111.27617187 -46.26953125 111.93359375 C-85.51803802 145.1644419 -138.1987683 156.06722294 -188.28564453 152.78466797 C-194.27891283 152.24815491 -200.12446006 151.28628559 -206 150 C-207.37188477 149.70198486 -207.37188477 149.70198486 -208.77148438 149.39794922 C-258.92492557 138.12608996 -303.6353192 108.24095064 -331.6875 64.9375 C-333.14255284 62.63526905 -334.57207817 60.3193721 -336 58 C-336.61746094 57.01386719 -337.23492187 56.02773438 -337.87109375 55.01171875 C-353.17389228 29.82515279 -353.17389228 29.82515279 -352.9375 19.1875 C-351.72026514 16.34728532 -350.82167193 15.29644386 -348 14 C-342.77997841 15.2741177 -338.46803774 17.84153237 -333.9375 20.625 C-332.89625977 21.22634766 -332.89625977 21.22634766 -331.83398438 21.83984375 C-326.572852 25.06747102 -323.85653381 28.58267975 -321 34 C-320.6594458 34.62084473 -320.3188916 35.24168945 -319.96801758 35.88134766 C-319.29673926 37.11085377 -318.6311587 38.34348713 -317.97119141 39.57910156 C-310.25419922 53.91951123 -300.27660042 66.31209501 -289 78 C-287.91332031 79.16402344 -287.91332031 79.16402344 -286.8046875 80.3515625 C-283.00991242 84.3143719 -279.07124295 87.75447601 -274.68701172 91.03369141 C-268.84982946 95.405116 -264.71762007 99.08498227 -261.265625 105.65625 C-255.43633034 116.45124011 -244.75525179 122.54727938 -233.41796875 126.2890625 C-225.46867995 128.6263332 -217.13140911 128.86052504 -209.0625 126.9375 C-202.25106623 125.39733504 -195.61790191 126.42268988 -188.79467773 127.51147461 C-170.35922246 129.88484822 -149.06968598 129.43963808 -131 125 C-130.17467773 124.80132324 -129.34935547 124.60264648 -128.49902344 124.39794922 C-103.46887858 118.19846065 -79.86389179 107.57950212 -60 91 C-59.14196777 90.30003906 -59.14196777 90.30003906 -58.26660156 89.5859375 C-30.81531271 67.18161228 -11.11160675 37.13499023 -1.59350586 2.87866211 C-1 1 -1 1 0 0 Z " fill="#000000" transform="translate(421,299)"/>
</svg>
